<?xml version="1.0" encoding="utf-8"?>
<!-- Generator: Adobe Illustrator 27.1.1, SVG Export Plug-In . SVG Version: 6.00 Build 0)  -->
<svg version="1.1" id="Warstwa_1" xmlns="http://www.w3.org/2000/svg" xmlns:xlink="http://www.w3.org/1999/xlink" x="0px" y="0px"
	 viewBox="0 0 1075 100" style="enable-background:new 0 0 1075 100;" xml:space="preserve">
<style type="text/css">
	.st0{fill:#4254F4;}
	.st1{fill:#FFFFFF;}
</style>
<g>
	<path class="st0" d="M581,22.6l8.7,29.5c0.4,1.3,0.7,2.8,1.1,4.5c0.4,1.7,0.7,3.2,0.8,4.6h1c0.2-1.4,0.5-2.9,0.9-4.6
		c0.4-1.7,0.8-3.2,1.2-4.6l8.5-29.4h24.1v51.9h-15.7V36.4h-0.8c-0.4,2-0.8,4-1.2,6.1c-0.5,2.1-1,4.1-1.5,6l-7.6,26H584l-7.8-26
		c-0.6-1.8-1-3.8-1.4-5.9c-0.4-2.1-0.7-4.2-1-6.1h-1.1v38.1h-15.6V22.6H581z"/>
	<path class="st0" d="M630.8,48.6c0-4.1,0.6-7.8,1.7-11.2c1.1-3.4,2.8-6.2,5.1-8.6c2.3-2.4,5.1-4.2,8.5-5.5c3.4-1.3,7.4-1.9,12-1.9
		c4.6,0,8.6,0.6,12,1.9c3.4,1.3,6.2,3.1,8.5,5.5c2.3,2.4,4,5.2,5.1,8.6c1.1,3.4,1.7,7.1,1.7,11.2c0,4.1-0.6,7.8-1.7,11.1
		c-1.1,3.3-2.8,6.1-5.1,8.5c-2.3,2.3-5.1,4.1-8.5,5.4c-3.4,1.3-7.4,1.9-12,1.9c-4.6,0-8.6-0.6-12-1.9c-3.4-1.3-6.3-3.1-8.5-5.4
		c-2.3-2.3-4-5.2-5.1-8.5C631.3,56.4,630.8,52.7,630.8,48.6z M658.1,64.6c3.5,0,6.4-1.2,8.5-3.6c2.2-2.4,3.2-6.5,3.2-12.5
		c0-3-0.3-5.6-0.8-7.6c-0.6-2-1.4-3.7-2.4-5c-1-1.3-2.3-2.2-3.7-2.8c-1.4-0.6-3.1-0.8-4.8-0.8c-1.8,0-3.5,0.3-4.9,0.8
		c-1.4,0.6-2.7,1.5-3.7,2.8c-1,1.3-1.8,2.9-2.4,5c-0.6,2.1-0.8,4.6-0.8,7.6c0,5.9,1.1,10.1,3.2,12.5
		C651.6,63.5,654.5,64.6,658.1,64.6z"/>
	<path class="st0" d="M705.7,78.5c-0.1,0.3-0.1,0.5-0.1,0.7c0,0.2,0,0.3,0,0.5c0,1.8,0.8,3.4,2.3,4.6c1.5,1.2,3.8,1.9,6.9,1.9
		c3.5,0,6.3-1.1,8.6-3.3c2.3-2.2,3.4-5.4,3.4-9.8v-6.6H726c-1.6,1.8-3.8,3.2-6.5,4.4c-2.7,1.2-5.7,1.7-9,1.7c-2.8,0-5.5-0.5-8.2-1.4
		c-2.7-0.9-5.1-2.4-7.3-4.4c-2.2-2-3.9-4.6-5.2-7.8c-1.3-3.2-2-7.2-2-11.8s0.7-8.6,2-11.9c1.3-3.2,3-5.9,5.2-8
		c2.2-2.1,4.6-3.6,7.3-4.5c2.7-0.9,5.4-1.4,8.2-1.4c2.3,0,4.4,0.3,6.2,0.8c1.8,0.5,3.4,1.2,4.7,1.9c1.3,0.7,2.5,1.5,3.4,2.4
		c0.9,0.8,1.6,1.6,2.1,2.1h0.6l2.1-6.1h11.6v48.8c0,4.2-0.7,7.9-2,11.1c-1.3,3.2-3.1,5.8-5.5,8c-2.3,2.1-5.1,3.7-8.3,4.8
		c-3.2,1.1-6.7,1.6-10.4,1.6c-4,0-7.5-0.4-10.5-1.2c-3-0.8-5.5-1.9-7.5-3.4c-2-1.4-3.5-3.1-4.6-5c-1-1.9-1.5-4-1.5-6.3
		c0-0.4,0-0.9,0-1.4c0-0.5,0.1-1,0.2-1.4L705.7,78.5z M715.8,62.1c2,0,3.9-0.5,5.7-1.5c1.8-1,3.3-2.2,4.4-3.7V37.3
		c-1-1.5-2.4-2.7-4.3-3.7c-1.9-1-3.8-1.5-5.7-1.5c-1.6,0-3.1,0.2-4.6,0.7c-1.5,0.5-2.8,1.3-4,2.4c-1.2,1.2-2.1,2.7-2.8,4.7
		c-0.7,2-1.1,4.5-1.1,7.4c0,2.9,0.4,5.3,1.1,7.2c0.7,1.9,1.6,3.4,2.8,4.5c1.2,1.1,2.5,1.9,4,2.3C712.9,61.9,714.3,62.1,715.8,62.1z"
		/>
	<path class="st0" d="M746.3,48.5c0-3.8,0.5-7.4,1.6-10.7c1.1-3.3,2.7-6.1,4.9-8.6c2.2-2.4,5-4.3,8.4-5.7c3.4-1.4,7.5-2.1,12.2-2.1
		c4,0,7.5,0.5,10.6,1.5c3.1,1,5.7,2.4,7.8,4.1c2.1,1.8,3.7,3.9,4.8,6.4c1.1,2.5,1.6,5.2,1.6,8.1c0,1.3-0.1,2.8-0.2,4.5
		c-0.1,1.7-0.3,3.1-0.4,4.3h-36.6c0,5.2,1,8.9,3.1,11.2c2.1,2.3,5.1,3.4,9,3.4c2,0,3.6-0.2,4.9-0.7c1.3-0.5,2.4-1,3.2-1.7
		c0.8-0.7,1.4-1.4,1.7-2.3s0.5-1.6,0.5-2.3v-1.4l14.2,0.3c0.1,0.4,0.1,0.7,0.2,1c0,0.3,0.1,0.6,0.1,0.9c0,1.5-0.3,3.2-0.8,5.1
		c-0.6,1.9-1.7,3.8-3.5,5.5c-1.8,1.7-4.3,3.1-7.5,4.3c-3.3,1.2-7.6,1.8-12.9,1.8c-8.9,0-15.6-2.3-20.1-7
		C748.5,63.8,746.3,57.2,746.3,48.5z M784.2,41.6c0.1-0.3,0.1-0.5,0.1-0.8c0-0.2,0-0.4,0-0.6c0-2.9-1.1-5.1-3.2-6.6
		c-2.2-1.5-4.7-2.2-7.6-2.2c-3.4,0-6.1,0.8-8.3,2.4c-2.1,1.6-3.4,4.2-3.7,7.8H784.2z"/>
	<path class="st0" d="M803.9,22.6h11.4l2.2,5.7h0.6c0.6-0.6,1.4-1.4,2.3-2.2c0.9-0.8,2-1.6,3.3-2.2c1.3-0.7,2.8-1.2,4.6-1.7
		c1.7-0.5,3.8-0.7,6.1-0.7c2.9,0,5.7,0.5,8.4,1.5c2.7,1,5.1,2.6,7.1,4.8c2,2.2,3.7,5,4.9,8.4c1.2,3.4,1.8,7.6,1.8,12.5
		c0,4.9-0.6,9.1-1.9,12.6c-1.2,3.4-2.9,6.2-5,8.3c-2.1,2.1-4.5,3.7-7.1,4.6c-2.6,1-5.4,1.4-8.2,1.4c-3.6,0-6.6-0.6-9.1-1.9
		c-2.4-1.2-4.3-2.6-5.7-4.1h-0.5v26.1h-15.3V22.6z M819.2,60.1c1.2,1.3,2.6,2.4,4.3,3.3s3.5,1.3,5.3,1.3c1.7,0,3.3-0.2,4.8-0.7
		c1.5-0.5,2.8-1.3,3.9-2.5c1.1-1.2,2-2.8,2.6-4.9c0.6-2,1-4.6,1-7.7c0-3.1-0.3-5.7-0.9-7.8c-0.6-2.1-1.4-3.8-2.5-5
		c-1.1-1.3-2.4-2.2-3.9-2.7c-1.5-0.5-3.1-0.8-4.9-0.8c-2.2,0-4.1,0.5-5.8,1.4c-1.7,0.9-3,2-3.9,3.2V60.1z"/>
	<path class="st0" d="M860.9,41.6c-0.2-1.2-0.3-2.5-0.3-3.8c0-5,1.9-9,5.8-11.9c3.9-2.9,9.9-4.4,18.2-4.4c4.6,0,8.4,0.5,11.4,1.6
		c3,1.1,5.4,2.5,7.2,4.2c1.8,1.7,3,3.7,3.7,6c0.7,2.3,1.1,4.6,1.1,7.1v21.1c0,2,0.8,3,2.3,3c1,0,1.9-0.1,2.7-0.4l0.6,10.2
		c-1.2,0.4-2.6,0.7-4.1,1c-1.5,0.3-3.1,0.4-4.6,0.4c-1.9,0-3.5-0.2-4.7-0.7c-1.2-0.5-2.2-1.1-2.9-1.9c-0.7-0.8-1.2-1.7-1.5-2.7
		c-0.3-1-0.5-2-0.5-3h-0.6c-0.4,0.5-1.1,1.2-2.2,2.2c-1,1-2.3,1.9-4,2.8c-1.6,0.9-3.5,1.7-5.7,2.3c-2.2,0.7-4.7,1-7.5,1
		c-5.1,0-9.2-1.1-12.2-3.4c-3.1-2.3-4.6-5.8-4.6-10.5c0-2.8,0.6-5.2,1.7-7.3s3.1-3.9,5.8-5.5c2.7-1.5,6.3-2.7,10.7-3.6
		c4.4-0.8,9.9-1.3,16.4-1.5v-4.1c0-2.3-0.7-4.1-2.2-5.6c-1.5-1.4-3.8-2.2-7-2.2c-6.3,0-9.4,2.2-9.4,6.5c0,0.4,0,0.7,0.1,1.2
		c0,0.4,0.1,0.8,0.2,1.3L860.9,41.6z M873.1,59.7c0,1.9,0.6,3.3,1.9,4.1c1.2,0.8,3,1.3,5.2,1.3c2.5,0,4.9-0.5,7.2-1.6
		c2.3-1.1,4.2-2.4,5.7-4.1v-7.6c-3.9,0.1-7.1,0.3-9.7,0.7c-2.6,0.4-4.6,1-6.1,1.7c-1.5,0.7-2.6,1.5-3.2,2.4
		C873.4,57.5,873.1,58.5,873.1,59.7z"/>
	<path class="st0" d="M923.7,74.5V34h-13V22.6h42.4V34h-13v40.5H923.7z"/>
	<path class="st0" d="M953.9,48.6c0-4.1,0.6-7.8,1.7-11.2c1.1-3.4,2.8-6.2,5.1-8.6c2.3-2.4,5.1-4.2,8.5-5.5c3.4-1.3,7.4-1.9,12-1.9
		c4.6,0,8.6,0.6,12,1.9c3.4,1.3,6.2,3.1,8.5,5.5c2.3,2.4,4,5.2,5.1,8.6c1.1,3.4,1.7,7.1,1.7,11.2c0,4.1-0.6,7.8-1.7,11.1
		c-1.1,3.3-2.8,6.1-5.1,8.5c-2.3,2.3-5.1,4.1-8.5,5.4c-3.4,1.3-7.4,1.9-12,1.9c-4.6,0-8.6-0.6-12-1.9c-3.4-1.3-6.3-3.1-8.5-5.4
		c-2.3-2.3-4-5.2-5.1-8.5C954.4,56.4,953.9,52.7,953.9,48.6z M981.2,64.6c3.5,0,6.4-1.2,8.5-3.6c2.2-2.4,3.2-6.5,3.2-12.5
		c0-3-0.3-5.6-0.8-7.6c-0.6-2-1.4-3.7-2.4-5c-1-1.3-2.3-2.2-3.7-2.8c-1.4-0.6-3.1-0.8-4.8-0.8c-1.8,0-3.5,0.3-4.9,0.8
		c-1.4,0.6-2.7,1.5-3.7,2.8c-1,1.3-1.8,2.9-2.4,5c-0.6,2.1-0.8,4.6-0.8,7.6c0,5.9,1.1,10.1,3.2,12.5
		C974.6,63.5,977.5,64.6,981.2,64.6z"/>
	<path class="st0" d="M1013.4,22.6h11.4l2.2,5.7h0.6c0.6-0.6,1.4-1.4,2.3-2.2c0.9-0.8,2-1.6,3.3-2.2c1.3-0.7,2.8-1.2,4.6-1.7
		c1.7-0.5,3.8-0.7,6.1-0.7c2.9,0,5.7,0.5,8.4,1.5c2.7,1,5.1,2.6,7.1,4.8c2,2.2,3.7,5,4.9,8.4c1.2,3.4,1.8,7.6,1.8,12.5
		c0,4.9-0.6,9.1-1.9,12.6c-1.2,3.4-2.9,6.2-5,8.3c-2.1,2.1-4.5,3.7-7.1,4.6c-2.6,1-5.4,1.4-8.2,1.4c-3.6,0-6.6-0.6-9.1-1.9
		c-2.4-1.2-4.3-2.6-5.7-4.1h-0.5v26.1h-15.3V22.6z M1028.7,60.1c1.2,1.3,2.6,2.4,4.3,3.3s3.5,1.3,5.3,1.3c1.7,0,3.3-0.2,4.8-0.7
		c1.5-0.5,2.8-1.3,3.9-2.5c1.1-1.2,2-2.8,2.6-4.9c0.6-2,1-4.6,1-7.7c0-3.1-0.3-5.7-0.9-7.8c-0.6-2.1-1.4-3.8-2.5-5
		c-1.1-1.3-2.4-2.2-3.9-2.7c-1.5-0.5-3.1-0.8-4.9-0.8c-2.2,0-4.1,0.5-5.8,1.4c-1.7,0.9-3,2-3.9,3.2V60.1z"/>
	<g>
		<path class="st1" d="M41.1,76.7c-1.1,6.3-3.4,11.1-6.9,14.5c-3.5,3.4-8.1,5-13.9,5c-2.3,0-4.5-0.2-6.4-0.5c-1.9-0.3-3.6-0.7-5-1.1
			l3.5-11.8c0.9,0.3,1.9,0.6,2.8,0.9c0.9,0.2,1.9,0.3,3,0.3c1.3,0,2.4-0.6,3.3-1.8c0.9-1.2,1.6-3.2,2.1-6.1l8.7-49.9H50L41.1,76.7z
			 M36,5.7h17.6l-2.4,13.4H33.6L36,5.7z"/>
		<path class="st1" d="M64.8,76.2c-2,0-4-0.3-5.9-1c-1.9-0.7-3.6-1.8-5.1-3.4c-1.5-1.6-2.7-3.6-3.6-6.1c-0.9-2.5-1.4-5.7-1.4-9.4
			c0-4.6,0.6-8.8,1.8-12.6c1.2-3.8,2.9-7.1,5.1-9.8c2.1-2.7,4.6-4.8,7.4-6.3c2.8-1.5,5.9-2.2,9.2-2.2c2.1,0,4,0.2,5.5,0.7
			c1.5,0.5,2.8,1,3.9,1.8s2,1.5,2.8,2.4c0.7,0.9,1.4,1.8,1.9,2.7h0.6l3.5-6.5h13.2l-5.8,33.2c-0.1,0.4-0.1,0.9-0.2,1.4
			c-0.1,0.5-0.1,1.1,0,1.6c0.1,0.5,0.2,0.9,0.5,1.2c0.3,0.3,0.8,0.5,1.5,0.5c0.6,0,1.2-0.1,1.8-0.2c0.6-0.2,1.1-0.4,1.6-0.6
			l-1.6,11.3c-0.7,0.2-1.5,0.4-2.4,0.6c-0.9,0.2-1.9,0.4-3,0.5c-1.1,0.1-2.1,0.2-3.1,0.3c-1,0.1-1.9,0.2-2.7,0.2
			c-3.3,0-5.7-0.6-7.1-1.8s-2.3-2.9-2.6-5.2H80c-0.7,0.7-1.5,1.4-2.4,2.2c-0.9,0.8-2,1.5-3.3,2.2c-1.3,0.7-2.7,1.3-4.2,1.8
			C68.5,76,66.8,76.2,64.8,76.2z M83.3,41.4c-0.3-0.9-0.9-1.8-1.8-2.7c-0.9-0.8-2-1.2-3.5-1.2c-1.3,0-2.6,0.4-3.9,1.2
			c-1.2,0.8-2.3,2-3.3,3.5c-1,1.5-1.8,3.4-2.4,5.7c-0.6,2.2-0.9,4.8-0.9,7.5c0,3.3,0.6,5.5,1.7,6.8c1.1,1.2,2.5,1.8,4.1,1.8
			c1.4,0,2.6-0.3,3.8-1s2.1-1.6,2.9-2.7L83.3,41.4z"/>
		<path class="st1" d="M104.3,56.5c0-4.1,0.5-8.1,1.6-11.8c1.1-3.8,2.8-7.1,5.2-10c2.4-2.9,5.4-5.2,9.1-6.9
			c3.7-1.7,8.1-2.5,13.2-2.5c4.3,0,7.9,0.5,10.6,1.5c2.8,1,5,2.2,6.6,3.7c1.7,1.5,2.8,3,3.5,4.8c0.6,1.7,0.9,3.2,0.9,4.5
			c0,1.3-0.1,2.4-0.4,3.5c-0.3,1.1-0.6,2-0.9,2.7l-17.3,0.2c0.1-0.7,0.3-1.3,0.4-1.9c0.1-0.6,0.2-1.3,0.2-2c0-1.3-0.3-2.4-1-3.3
			c-0.7-0.9-1.9-1.4-3.7-1.4c-1.6,0-3,0.5-4.2,1.5c-1.2,1-2.3,2.4-3.2,4c-0.9,1.7-1.5,3.7-2,5.9c-0.5,2.2-0.7,4.6-0.7,7
			c0,2.5,0.5,4.4,1.4,5.9c1,1.4,2.4,2.1,4.2,2.1c2.1,0,3.8-0.8,5.1-2.3c1.3-1.5,2-3.6,2-6.3l17.2,0.1c0,2.8-0.4,5.5-1,8
			c-0.7,2.5-2,4.7-3.8,6.6c-1.8,1.9-4.4,3.4-7.6,4.5c-3.2,1.1-7.4,1.7-12.4,1.7c-7.4,0-13.1-1.8-17.1-5.3
			C106.3,67.4,104.3,62.6,104.3,56.5z"/>
		<path class="st1" d="M199.7,61.5c0.3,0.7,0.7,1.2,1.2,1.5c0.5,0.3,1,0.5,1.7,0.5c0.9,0,1.9-0.2,2.9-0.5l-2.1,11.8
			c-1.3,0.5-2.9,0.8-4.5,1.1c-1.7,0.2-3.4,0.3-5.2,0.3c-1.8,0-3.3-0.2-4.4-0.8c-1.2-0.5-2.1-1.1-2.9-1.8c-0.7-0.7-1.3-1.5-1.7-2.4
			c-0.4-0.9-0.7-1.7-0.9-2.4c-0.4-1.2-0.8-2.5-1.2-3.9c-0.4-1.4-0.9-2.8-1.4-4.1c-0.5-1.3-0.9-2.5-1.2-3.5c-0.4-1-0.7-1.8-0.9-2.2
			h-4.7l-3.5,20.2h-17.7l12.7-72h17.7l-7.2,40.6l3.8-0.4c0.3-0.3,0.8-1,1.5-1.9c0.7-0.9,1.4-1.9,2.2-3.1c0.8-1.2,1.7-2.4,2.6-3.8
			c0.9-1.3,1.8-2.6,2.6-3.8c0.8-1.2,1.5-2.2,2.2-3c0.7-0.9,1.2-1.4,1.5-1.7h18.6l-0.4,2c-0.3,0.3-0.9,0.9-1.7,1.9
			c-0.8,1-1.7,2.2-2.8,3.5c-1.1,1.4-2.2,2.8-3.4,4.4c-1.2,1.6-2.3,3.1-3.4,4.6c-1.1,1.5-2.1,2.8-3,3.9c-0.9,1.2-1.6,2-2.1,2.6
			c0.3,0.4,0.6,1.1,1,2c0.4,1,0.9,2,1.4,3.2s1,2.4,1.5,3.7C198.8,59.4,199.3,60.5,199.7,61.5z"/>
		<path class="st1" d="M218.4,3.2H236L231,31h0.5c1.3-1.5,3-2.9,5.1-4c2.1-1.2,4.6-1.8,7.6-1.8c1.9,0,3.8,0.3,5.7,1
			c1.9,0.7,3.7,1.8,5.2,3.2c1.5,1.5,2.8,3.5,3.8,5.9s1.5,5.4,1.5,8.9c0,5.9-0.8,10.9-2.4,15c-1.6,4.1-3.6,7.4-6,9.9
			c-2.4,2.5-5.1,4.3-8,5.4c-2.9,1.1-5.7,1.7-8.4,1.7c-2,0-3.7-0.2-5.2-0.7c-1.5-0.5-2.7-1-3.8-1.8c-1-0.7-1.9-1.4-2.6-2.2
			c-0.7-0.8-1.2-1.5-1.6-2.1h-0.5l-3.4,5.8h-13.2L218.4,3.2z M225.8,60.6c0.4,0.9,1.1,1.7,2,2.4c1,0.7,2.1,1,3.5,1
			c1.3,0,2.6-0.4,4-1.1c1.3-0.7,2.5-1.9,3.5-3.4c1.1-1.5,1.9-3.4,2.6-5.6c0.7-2.2,1-4.8,1-7.8c0-3.3-0.7-5.5-2-6.8
			c-1.3-1.2-2.8-1.9-4.3-1.9c-1.2,0-2.4,0.4-3.8,1.1c-1.3,0.7-2.4,1.7-3.2,2.8L225.8,60.6z"/>
		<path class="st1" d="M260.9,56.3c0-4.5,0.6-8.6,1.8-12.4c1.2-3.8,2.9-7.1,5.3-9.9c2.4-2.8,5.3-4.9,8.9-6.5
			c3.5-1.6,7.6-2.3,12.3-2.3c4.1,0,7.7,0.5,10.7,1.5s5.5,2.4,7.4,4.2c1.9,1.8,3.4,3.9,4.3,6.3c0.9,2.5,1.4,5.2,1.4,8.1
			c0,4.5-0.6,8.6-1.8,12.4c-1.2,3.8-3,7-5.4,9.8c-2.4,2.7-5.4,4.9-8.9,6.5c-3.5,1.6-7.6,2.3-12.3,2.3c-4.1,0-7.7-0.5-10.7-1.5
			s-5.5-2.3-7.4-4.1c-1.9-1.8-3.3-3.9-4.2-6.3C261.4,62,260.9,59.3,260.9,56.3z M284.7,64c3.2,0,5.7-1.6,7.5-4.8
			c1.8-3.2,2.6-7.8,2.6-14c0-2.7-0.5-4.6-1.6-5.9c-1.1-1.3-2.5-1.9-4.3-1.9c-3.2,0-5.7,1.6-7.5,4.8c-1.8,3.2-2.6,7.8-2.6,13.9
			c0,2.7,0.5,4.7,1.6,6C281.6,63.4,283,64,284.7,64z"/>
		<path class="st1" d="M337.1,34.6c0.5,1.5,0.9,2.9,1.2,4.2c0.4,1.3,0.7,2.6,0.9,3.8h0.4c0.7-1.5,1.5-3,2.4-4.3
			c0.9-1.3,1.8-2.7,2.8-4.1l5.7-8h18.8l-0.3,1.7l-18.5,22.2l5.5,10.9c0.5,1,1.1,1.7,1.8,2c0.7,0.3,1.3,0.5,1.9,0.5
			c1.1,0,2.2-0.2,3.3-0.7l-2.1,12c-1.3,0.3-2.9,0.7-4.6,1c-1.8,0.3-3.5,0.5-5.2,0.5c-2.9,0-5-0.7-6.5-2c-1.5-1.3-2.6-3.1-3.3-5.3
			l-1.2-3.6c-0.5-1.3-0.8-2.6-1.1-3.8c-0.3-1.2-0.5-2.4-0.8-3.5h-0.5c-0.7,1.5-1.5,3-2.3,4.2s-1.7,2.6-2.6,4l-6.4,9h-18.8l0.3-1.6
			l18.9-23.1l-5-10.1c-0.5-1-1.1-1.7-1.8-2c-0.7-0.3-1.5-0.5-2.2-0.5c-0.6,0-1.2,0.1-1.7,0.2c-0.5,0.1-1.1,0.3-1.6,0.5l2.2-12
			c1.3-0.3,2.9-0.7,4.6-1c1.7-0.3,3.5-0.5,5.3-0.5c3.1,0,5.3,0.6,6.6,1.7c1.3,1.1,2.3,2.8,2.9,4.9L337.1,34.6z"/>
		<path class="st1" d="M369,57.6h19.1L385,75.2h-19.1L369,57.6z"/>
		<path class="st1" d="M415.6,34.6c0.7-1.2,1.4-2.4,2.3-3.5c0.9-1.1,1.9-2.1,3.1-3c1.2-0.9,2.6-1.6,4.2-2.1c1.6-0.5,3.5-0.8,5.6-0.8
			c2,0,4,0.3,6,1c2,0.7,3.8,1.8,5.4,3.2c1.6,1.5,2.9,3.5,3.9,5.8c1,2.4,1.6,5.3,1.6,8.7c0,6.1-0.8,11.2-2.4,15.3
			c-1.6,4.1-3.6,7.5-6,10c-2.4,2.5-5.1,4.3-8,5.4c-2.9,1.1-5.6,1.6-8.2,1.6c-3,0-5.4-0.5-7-1.5c-1.7-1-3.1-2.2-4.2-3.7h-0.7
			l-4.2,24.2h-17.7l9.6-53.4c0.1-0.5,0.1-0.9,0.2-1.4c0-0.5,0-1-0.2-1.4c-0.1-0.4-0.4-0.8-0.8-1c-0.4-0.3-0.9-0.4-1.5-0.4
			c-1.3,0-2.3,0.2-3.1,0.7l1.4-11.6c0.6-0.2,1.3-0.4,2.2-0.6c0.9-0.2,1.8-0.3,2.8-0.4c1-0.1,2-0.2,3-0.3c1-0.1,1.9-0.1,2.8-0.1
			c1.8,0,3.3,0.2,4.5,0.7c1.2,0.5,2.2,1,3,1.8c0.8,0.7,1.3,1.5,1.6,2.4c0.3,0.9,0.5,1.8,0.5,2.6c0,0.3,0,0.6,0,0.9
			c0,0.4-0.1,0.7-0.1,1.1H415.6z M413.1,60.7c0.5,1,1.3,1.8,2.2,2.4c1,0.6,2,0.9,3.2,0.9c1.3,0,2.6-0.4,3.9-1.1
			c1.3-0.7,2.5-1.9,3.5-3.4c1-1.5,1.9-3.5,2.5-5.8c0.6-2.3,1-5,1-8.1c0-2.8-0.6-4.9-1.7-6.2c-1.1-1.3-2.6-2-4.4-2
			c-1.7,0-3.3,0.8-4.9,2.5c-1.6,1.6-2.6,4.1-3.1,7.3L413.1,60.7z"/>
		<path class="st1" d="M478.3,37.7c-1.3,0-2.6,0.9-3.9,2.6c-1.3,1.7-2.2,4.4-2.9,8.1l-4.8,26.8h-17.8l5.9-33.4
			c0.1-0.9,0.1-1.9,0-2.8c-0.1-1-0.9-1.5-2.2-1.5c-1.1,0-2.2,0.2-3.1,0.7l1.4-11.6c0.6-0.2,1.3-0.4,2.2-0.6c0.9-0.2,1.8-0.3,2.8-0.4
			c1-0.1,2-0.2,3-0.3c1-0.1,1.9-0.1,2.8-0.1c1.8,0,3.3,0.2,4.5,0.7c1.2,0.5,2.2,1,2.9,1.8c0.7,0.7,1.2,1.5,1.5,2.3
			c0.3,0.8,0.5,1.6,0.5,2.3c0,0.4,0,0.8,0,1.2c0,0.4-0.1,0.8-0.2,1.1h0.6c1.3-2.5,3-4.7,5.3-6.6c2.3-1.9,5.3-2.8,9-2.8
			c2.1,0,4,0.3,5.5,1c1.5,0.6,2.7,1.5,3.6,2.5c0.9,1.1,1.6,2.3,2,3.6c0.4,1.3,0.6,2.7,0.6,4.1c0,2.8-0.3,5.2-1,7.2
			c-0.7,2-1.4,3.8-2.3,5.3l-14.5-0.8c0.4-1.3,0.7-2.4,1-3.5c0.3-1,0.4-2,0.4-3c0-1.1-0.2-2.1-0.7-2.8
			C479.9,38.1,479.2,37.7,478.3,37.7z"/>
		<path class="st1" d="M495,56.3c0-4.5,0.6-8.6,1.8-12.4c1.2-3.8,2.9-7.1,5.3-9.9c2.4-2.8,5.3-4.9,8.8-6.5c3.5-1.6,7.6-2.3,12.3-2.3
			c4.1,0,7.7,0.5,10.7,1.5s5.5,2.4,7.4,4.2c1.9,1.8,3.4,3.9,4.3,6.3c0.9,2.5,1.4,5.2,1.4,8.1c0,4.5-0.6,8.6-1.8,12.4
			c-1.2,3.8-3,7-5.4,9.8c-2.4,2.7-5.4,4.9-8.9,6.5c-3.5,1.6-7.6,2.3-12.3,2.3c-4.1,0-7.7-0.5-10.7-1.5s-5.5-2.3-7.3-4.1
			c-1.9-1.8-3.3-3.9-4.2-6.3C495.4,62,495,59.3,495,56.3z M518.8,64c3.2,0,5.7-1.6,7.4-4.8c1.8-3.2,2.7-7.8,2.7-14
			c0-2.7-0.5-4.6-1.6-5.9c-1.1-1.3-2.5-1.9-4.3-1.9c-3.2,0-5.7,1.6-7.4,4.8c-1.8,3.2-2.7,7.8-2.7,13.9c0,2.7,0.5,4.7,1.7,6
			C515.6,63.4,517.1,64,518.8,64z"/>
	</g>
</g>
</svg>
